<svg id="Capa_1" enable-background="new 0 0 512 512" height="512" viewBox="0 0 512 512" width="512" xmlns="http://www.w3.org/2000/svg"><g><path d="m479.162 193.409h-323.259c-3.421 0-6.194-2.773-6.194-6.194v-19.951c0-3.421 2.773-6.194 6.194-6.194h323.259c3.421 0 6.194 2.773 6.194 6.194v19.951c0 3.421-2.773 6.194-6.194 6.194z" fill="#81a7c6"/><path d="m153.434 101.788 15.885 59.282h29.173l-18.926-70.634c-3.245-12.11-14.219-20.531-26.756-20.531h-119.954c-3.431 0-6.212 2.781-6.212 6.212 0 12.132 9.835 21.967 21.967 21.967h99.996c2.262 0 4.241 1.519 4.827 3.704z" fill="#4a80aa"/><path d="m504.5 282.139c0-1.517-1.246-2.742-2.762-2.725-38.678.434-39.598 9.985-80.075 9.985-41.418 0-41.418-10-82.837-10-41.417 0-41.417 10-82.833 10-41.415 0-41.415-10-82.831-10s-41.416 10-82.832 10c-40.474 0-41.394-9.55-80.069-9.985-1.516-.017-2.762 1.209-2.762 2.725v186.284c0 1.504 1.219 2.724 2.724 2.724h491.553c1.504 0 2.724-1.219 2.724-2.724z" fill="#ffd064"/><path d="m501.738 279.414c-17.986.202-27.807 2.375-37.238 4.643v95.377c0 39.606-32.107 71.713-71.713 71.713h-385.287v17.276c0 1.504 1.219 2.724 2.724 2.724h491.553c1.504 0 2.724-1.219 2.724-2.724v-186.284c-.001-1.517-1.247-2.743-2.763-2.725z" fill="#ffc250"/><path d="m501.769 271.913h-.116c-12.49.141-21.268 1.205-28.597 2.586l8.349-73.774c6.487-1.074 11.45-6.724 11.45-13.51v-19.951c0-7.551-6.143-13.694-13.694-13.694h-19.195c-4.142 0-7.5 3.357-7.5 7.5s3.358 7.5 7.5 7.5h17.889v17.34s3.289 0-320.647 0v-17.34h267.758c4.142 0 7.5-3.357 7.5-7.5s-3.358-7.5-7.5-7.5h-220.72l-17.436-65.076c-4.116-15.36-18.098-26.089-34.001-26.089h-119.954c-7.561 0-13.711 6.151-13.711 13.712 0 16.248 13.219 29.467 29.467 29.467h45.883c4.142 0 7.5-3.357 7.5-7.5s-3.358-7.5-7.5-7.5h-45.883c-7.543 0-13.757-5.803-14.411-13.179h118.608c9.126 0 17.15 6.156 19.512 14.972l16.396 61.192h-13.643l-14.396-53.723c-1.461-5.454-6.425-9.263-12.071-9.263h-19.112c-4.142 0-7.5 3.357-7.5 7.5s3.358 7.5 7.5 7.5h17.191l12.858 47.985h-3.641c-7.551 0-13.694 6.144-13.694 13.694v19.951c0 6.787 4.963 12.437 11.45 13.51 10.256 90.623-2.177-19.231 8.086 71.451-32.018 1.652-34.869 9.722-71.415 9.722-39.36 0-40.204-9.537-79.987-9.985-2.762.01-5.35 1.021-7.309 2.959-1.955 1.938-3.033 4.519-3.033 7.269v80.357c0 4.143 3.358 7.5 7.5 7.5s7.5-3.357 7.5-7.5v-75.476c32.924 1.124 35.489 9.878 75.331 9.878 42.119 0 43.009-10 82.832-10 40.107 0 40.393 10 82.831 10 42.545 0 42.493-10 82.833-10 18.06 0 27.285 1.803 39.658 4.791 10.608 2.561 21.577 5.209 43.179 5.209 40.999 0 41.712-8.73 75.337-9.878v176.626h-482.001v-66.15c0-4.143-3.358-7.5-7.5-7.5s-7.5 3.357-7.5 7.5v70.927c0 5.638 4.586 10.224 10.224 10.224h491.553c5.637 0 10.224-4.586 10.224-10.224v-186.284c0-2.75-1.078-5.331-3.035-7.267-1.933-1.911-4.484-2.959-7.197-2.959zm-332.993-71.004h45.652l3.206 46.326h-43.615zm60.688 0h49.219l1.052 46.326h-47.065zm64.223 0h47.691l-1.052 46.326h-45.588zm62.695 0h49.219l-3.206 46.326h-47.065zm64.255 0h45.652l-5.243 46.326h-43.615zm-243.824 71.016-1.097-9.689h42.956l1.086 15.692c-13.896-3.273-22.824-5.71-42.945-6.003zm58.177 8.828-1.282-18.518h46.367l.409 18.034c-6.376.978-14.01 1.629-24.492 1.629-8.638 0-15.342-.442-21.002-1.145zm60.659-3.646c-.077.019-.154.037-.231.056l-.339-14.928h44.907l-.219 9.665c-.311-.001-.625-.002-.941-.002-21.601 0-32.569 2.649-43.177 5.209zm59.109-4.641.232-10.231h46.367l-1.277 18.444c-7.04-.908-12.473-2.219-18.076-3.572-7.624-1.84-15.435-3.726-27.246-4.641zm60.28 9.338 1.354-19.569h42.956l-1.785 15.771c-8.969 2.103-18.52 3.893-35.9 3.893-2.345-.001-4.547-.033-6.625-.095z"/><path d="m180.393 303.555c-.466-4.116-4.188-7.076-8.296-6.608-4.116.466-7.075 4.18-6.609 8.296l5.17 45.688c2.191 19.359 18.536 33.958 38.019 33.958h217.711c19.483 0 35.828-14.599 38.019-33.958 3.764-33.259-2.577 22.769 4.485-39.632.466-4.116-2.493-7.83-6.609-8.296-4.122-.466-7.83 2.493-8.296 6.608l-1.126 9.951h-40.435l.36-5.2c.286-4.132-2.832-7.714-6.964-8-4.135-.27-7.714 2.833-8 6.965l-.432 6.235h-43.701l.337-14.853c.094-4.141-3.187-7.574-7.328-7.668-4.127-.077-7.574 3.187-7.668 7.328l-.345 15.192h-42.305l-.179-7.878c-.094-4.141-3.517-7.381-7.668-7.328-4.141.094-7.422 3.527-7.328 7.668l.171 7.538h-43.701l-.501-7.242c-.286-4.133-3.873-7.244-8-6.965-4.132.286-7.25 3.868-6.964 8l.43 6.207h-40.436zm270.77 31.007-1.661 14.681c-1.332 11.771-11.268 20.646-23.113 20.646h-21.209c2.777-5.39 4.591-11.968 5.097-19.284l1.11-16.042h39.776zm-54.811 0-1.039 15.007c-.829 11.975-6.574 20.319-11.21 20.319h-33.03c1.074-5.352 1.752-12.254 1.92-19.632l.356-15.694zm-58.007 0-.348 15.354c-.229 10.093-1.394 16.729-2.328 19.972h-36.271c-.934-3.243-2.099-9.879-2.328-19.972l-.348-15.354zm-56.628 0 .356 15.694c.167 7.378.845 14.28 1.92 19.632h-33.03c-4.637 0-10.381-8.345-11.21-20.319l-1.039-15.007zm-58.039 0 1.11 16.042c.506 7.316 2.319 13.894 5.097 19.284h-21.208c-11.845 0-21.781-8.876-23.113-20.646l-1.661-14.681h39.775z"/><circle cx="67.424" cy="359.425" r="7.5"/><circle cx="125.871" cy="333.608" r="7.5"/><circle cx="125.871" cy="398.14" r="7.5"/><circle cx="203.376" cy="434.551" r="7.5"/><circle cx="287.072" cy="414.146" r="7.5"/><circle cx="381.259" cy="434.551" r="7.5"/><circle cx="421.138" cy="414.146" r="7.5"/><circle cx="467.745" cy="429.146" r="7.5"/><circle cx="83.306" cy="421.646" r="7.5"/><path d="m331.116 40.854c0-4.143-3.358-7.5-7.5-7.5s-7.5 3.357-7.5 7.5c0 8.897-2.233 12.931-5.061 18.038-3.252 5.873-6.939 12.53-6.939 25.304 0 12.772 3.687 19.43 6.938 25.303 2.828 5.107 5.062 9.141 5.062 18.038 0 4.143 3.358 7.5 7.5 7.5s7.5-3.357 7.5-7.5c0-12.773-3.687-19.431-6.939-25.305-2.828-5.105-5.061-9.14-5.061-18.036 0-8.897 2.233-12.931 5.061-18.038 3.252-5.874 6.939-12.531 6.939-25.304z"/><path d="m381.386 40.854c0-4.143-3.358-7.5-7.5-7.5s-7.5 3.357-7.5 7.5c0 8.897-2.233 12.931-5.061 18.038-3.252 5.873-6.939 12.53-6.939 25.304 0 12.772 3.687 19.43 6.938 25.303 2.828 5.107 5.062 9.141 5.062 18.038 0 4.143 3.358 7.5 7.5 7.5s7.5-3.357 7.5-7.5c0-12.773-3.687-19.431-6.939-25.305-2.828-5.105-5.061-9.14-5.061-18.036 0-8.897 2.233-12.931 5.061-18.038 3.253-5.874 6.939-12.531 6.939-25.304z"/><path d="m280.845 40.854c0-4.143-3.358-7.5-7.5-7.5s-7.5 3.357-7.5 7.5c0 8.897-2.233 12.931-5.061 18.038-3.252 5.873-6.939 12.53-6.939 25.304 0 12.772 3.687 19.43 6.938 25.303 2.828 5.107 5.062 9.141 5.062 18.038 0 4.143 3.358 7.5 7.5 7.5s7.5-3.357 7.5-7.5c0-12.773-3.687-19.431-6.939-25.305-2.828-5.105-5.061-9.14-5.061-18.036 0-8.897 2.233-12.931 5.061-18.038 3.252-5.874 6.939-12.531 6.939-25.304z"/></g></svg>